<svg width="55" height="55" viewBox="0 0 55 55" fill="none" xmlns="http://www.w3.org/2000/svg">
<g clip-path="url(#clip0_36:62)">
<path d="M0.232162 20.4113C0.0594894 20.6045 -0.0230932 20.8618 0.0052685 21.1191L3.0604 48.6546C3.16467 49.573 3.72774 50.3754 4.55565 50.7859C4.72498 50.9752 4.96647 51.0845 5.22089 51.0866H48.9166C50.2926 51.0841 51.4529 50.0614 51.6285 48.6967L54.6607 24.7786C54.6607 24.7686 54.6607 24.7603 54.6607 24.7503C54.6557 24.6322 54.6444 24.5142 54.6261 24.3974C54.6048 24.3428 54.5781 24.2902 54.5468 24.241C54.5235 24.1885 54.4955 24.1384 54.463 24.0913C54.4263 24.0537 54.3867 24.0191 54.3445 23.9874C54.2974 23.9415 54.2449 23.9007 54.1886 23.8665C54.1794 23.8665 54.1748 23.8527 54.1656 23.8481L49.9301 21.7314L47.0735 8.97576C47.0206 8.73886 46.8758 8.53282 46.6702 8.40352C46.465 8.27381 46.2168 8.23168 45.9804 8.2859L23.6464 13.3009L14.2382 3.88985C13.8825 3.53407 13.3056 3.53407 12.9499 3.88985L0.26678 16.5754C-0.0889923 16.9312 -0.0889923 17.508 0.26678 17.8638L2.5111 20.1081H0.911173C0.651748 20.1081 0.405251 20.2182 0.232162 20.4113ZM50.0073 46.9954L47.2821 22.445L52.7717 25.1895L50.0073 46.9954ZM47.828 20.6804L46.875 20.2036C46.7086 20.1261 46.5226 20.1015 46.342 20.1336C46.2978 20.1215 46.2527 20.1127 46.2072 20.1081H41.2932L35.1525 15.7217C34.9247 15.559 34.6349 15.5098 34.3663 15.5886C34.0981 15.667 33.8804 15.8647 33.7765 16.1246L32.3451 19.709L26.8784 16.5838C26.596 16.4207 26.2486 16.4211 25.9662 16.5842C25.6843 16.7473 25.5112 17.0488 25.5116 17.3746V20.1081H20.2909L19.3934 16.1225L45.4953 10.2679L47.828 20.6804ZM38.158 20.1081H34.149L35.0411 17.8792L38.158 20.1081ZM29.3704 20.1081H27.3338V18.9445L29.3704 20.1081ZM2.19954 17.2198L13.5938 5.82511L21.5418 13.7731L18.1042 14.5501C17.8673 14.603 17.6617 14.7482 17.5324 14.9534C17.4031 15.1586 17.3609 15.4072 17.4152 15.6433L18.4228 20.1081H5.08784L2.19954 17.2198ZM45.3914 21.9304L45.6788 24.5113C45.6638 24.5613 45.6534 24.6122 45.6475 24.6635C45.6492 24.7961 45.6805 24.9263 45.7389 25.0456L46.8074 34.686H31.8896C31.3862 34.686 30.9783 35.0939 30.9783 35.5974C30.9783 36.1004 31.3862 36.5083 31.8896 36.5083H47.0143L48.3173 48.2529C48.3456 48.5111 48.2626 48.7693 48.0887 48.9628C47.9152 49.1559 47.667 49.2656 47.4072 49.2643H5.77728C5.31349 49.2639 4.92351 48.9144 4.87263 48.4531L3.54714 36.5083H17.3113C17.8147 36.5083 18.2226 36.1004 18.2226 35.5974C18.2226 35.0939 17.8147 34.686 17.3113 34.686H3.34485L1.92886 21.9304H45.3914Z" fill="#BE2F21"/>
<path d="M24.6008 40.1528C27.1167 40.1528 29.1562 38.1132 29.1562 35.5974C29.1562 33.0811 27.1167 31.0416 24.6008 31.0416C22.0846 31.0416 20.045 33.0811 20.045 35.5974C20.0479 38.112 22.0858 40.1498 24.6008 40.1528ZM24.6008 32.8638C26.1103 32.8638 27.334 34.0875 27.334 35.5974C27.334 37.1068 26.1103 38.3305 24.6008 38.3305C23.091 38.3305 21.8673 37.1068 21.8673 35.5974C21.8673 34.0875 23.091 32.8638 24.6008 32.8638Z" fill="#BE2F21"/>
<path d="M41.9123 18.2859C43.4217 18.2859 44.6454 17.0618 44.6454 15.5524C44.6454 14.0429 43.4217 12.8188 41.9123 12.8188C40.4024 12.8188 39.1787 14.0429 39.1787 15.5524C39.1787 17.0618 40.4024 18.2859 41.9123 18.2859ZM41.9123 14.641C42.4153 14.641 42.8232 15.0489 42.8232 15.5524C42.8232 16.0554 42.4153 16.4633 41.9123 16.4633C41.4089 16.4633 41.0009 16.0554 41.0009 15.5524C41.0009 15.0489 41.4089 14.641 41.9123 14.641Z" fill="#BE2F21"/>
<path d="M14.4661 9.44124C14.1103 9.08546 13.5335 9.08546 13.1777 9.44124L5.88879 16.7306C5.65189 16.9592 5.55679 17.2978 5.64021 17.6165C5.72363 17.9351 5.97221 18.1837 6.29086 18.2671C6.60951 18.3506 6.94818 18.2555 7.17716 18.0186L14.4661 10.7296C14.8219 10.3738 14.8219 9.79701 14.4661 9.44124Z" fill="#BE2F21"/>
<path d="M17.1997 12.1748C16.8439 11.819 16.2671 11.819 15.9113 12.1748L11.3555 16.7306C11.1186 16.9591 11.0235 17.2978 11.1069 17.6165C11.1904 17.9351 11.4394 18.1837 11.7576 18.2671C12.0762 18.3505 12.4149 18.2554 12.6439 18.0185L17.1997 13.4632C17.555 13.1074 17.555 12.5306 17.1997 12.1748Z" fill="#BE2F21"/>
</g>
<defs>
<clipPath id="clip0_36:62">
<rect width="54.6607" height="54.6607" fill="white"/>
</clipPath>
</defs>
</svg>
