<svg width="40" height="40" viewBox="0 0 40 40" fill="none" xmlns="http://www.w3.org/2000/svg">
<path d="M33.3333 20V36.6667H6.66663V20" stroke="black" stroke-width="3.33333" stroke-linecap="round" stroke-linejoin="round"/>
<path d="M36.6667 11.6666H3.33337V20H36.6667V11.6666Z" stroke="black" stroke-width="3.33333" stroke-linecap="round" stroke-linejoin="round"/>
<path d="M20 36.6666V11.6666" stroke="black" stroke-width="3.33333" stroke-linecap="round" stroke-linejoin="round"/>
<path d="M20 11.6667H12.5C11.395 11.6667 10.3352 11.2277 9.55376 10.4463C8.77236 9.66492 8.33337 8.60511 8.33337 7.50004C8.33337 6.39497 8.77236 5.33516 9.55376 4.55376C10.3352 3.77236 11.395 3.33337 12.5 3.33337C18.3334 3.33337 20 11.6667 20 11.6667Z" stroke="black" stroke-width="3.33333" stroke-linecap="round" stroke-linejoin="round"/>
<path d="M20 11.6667H27.5C28.6051 11.6667 29.6649 11.2277 30.4463 10.4463C31.2277 9.66492 31.6667 8.60511 31.6667 7.50004C31.6667 6.39497 31.2277 5.33516 30.4463 4.55376C29.6649 3.77236 28.6051 3.33337 27.5 3.33337C21.6667 3.33337 20 11.6667 20 11.6667Z" stroke="black" stroke-width="3.33333" stroke-linecap="round" stroke-linejoin="round"/>
</svg>
